<svg id="_x33_0" enable-background="new 0 0 64 64" height="512" viewBox="0 0 64 64" width="512" xmlns="http://www.w3.org/2000/svg"><g><path d="m60 17h-31v-13c0-1.654-1.346-3-3-3h-22c-1.654 0-3 1.346-3 3v18c0 1.654 1.346 3 3 3h11.586l2 2h-2.586v1.557c0 1.136-.678 2.15-1.727 2.586-1.062.444-2.273.201-3.086-.612l-1.087-1.087-5.657 5.657 1.101 1.101c.804.805 1.042 2.003.601 3.066-.437 1.052-1.455 1.732-2.595 1.732h-1.55v8h1.547c1.142 0 2.162.681 2.6 1.735.439 1.057.2 2.262-.609 3.07l-1.094 1.094 5.657 5.658 1.086-1.088c.812-.813 2.024-1.054 3.087-.612 1.048.436 1.726 1.451 1.726 2.586v1.557h8v-1.557c0-1.136.678-2.15 1.744-2.594 1.051-.438 2.25-.199 3.054.604l1.101 1.104 5.657-5.658-1.086-1.087c-.813-.813-1.054-2.024-.604-3.107.428-1.036 1.428-1.705 2.55-1.705.634 0 1.256-.258 1.706-.707l3.292-3.293h19.586c1.654 0 3-1.346 3-3v-22c0-1.654-1.346-3-3-3zm-33 7.816c.847-.302 1.514-.969 1.816-1.816h8.184v10h-10zm-24-2.816v-18c0-.552.449-1 1-1h22c.551 0 1 .448 1 1v18c0 .552-.449 1-1 1h-3v-1c0-2.849-1.714-5.302-4.162-6.393 1.32-1.102 2.162-2.757 2.162-4.607 0-3.309-2.691-6-6-6s-6 2.691-6 6c0 1.85.842 3.505 2.162 4.607-2.448 1.091-4.162 3.544-4.162 6.393v1h-3c-.551 0-1-.448-1-1zm24 23c0 4.411-3.589 8-8 8s-8-3.589-8-8 3.589-8 8-8c.68 0 1.35.085 2 .253v2.096c-.636-.226-1.308-.349-2-.349-3.309 0-6 2.691-6 6s2.691 6 6 6 6-2.691 6-6zm-4 0c0 2.206-1.794 4-4 4s-4-1.794-4-4 1.794-4 4-4c.714 0 1.394.194 2 .547v.453c0 1.295.829 2.39 1.981 2.81.003.064.019.126.019.19zm-4-34c0 2.206-1.794 4-4 4s-4-1.794-4-4zm-7.444-2c.694-1.19 1.97-2 3.444-2s2.75.81 3.444 2zm2.444 8h2c.339 0 .67.035.99.1-.054 1.055-.921 1.9-1.99 1.9s-1.936-.845-1.99-1.9c.32-.065.651-.1.99-.1zm-5 6v-1c0-1.682.842-3.166 2.119-4.073.421 1.758 1.996 3.073 3.881 3.073s3.46-1.315 3.881-3.073c1.277.907 2.119 2.391 2.119 4.073v4.586c0 .338-.468.532-.707.293l-3.879-3.879zm22.01 26.959c-.693 1.669-.4 3.555.733 4.925l-2.858 2.858c-1.365-1.135-3.246-1.43-4.926-.732-1.66.689-2.778 2.226-2.939 3.99h-4.04c-.162-1.765-1.279-3.301-2.939-3.99-1.667-.691-3.553-.398-4.925.733l-2.858-2.858c1.134-1.368 1.428-3.25.736-4.917-.69-1.662-2.228-2.782-3.994-2.947v-4.042c1.765-.164 3.303-1.284 3.998-2.957.691-1.664.396-3.544-.74-4.907l2.858-2.859c1.371 1.134 3.256 1.427 4.924.734 1.66-.689 2.778-2.226 2.939-3.99h4.021v6.209c-.656-.134-1.323-.209-2-.209-5.514 0-10 4.486-10 10s4.486 10 10 10 10-4.486 10-10h4v1.586c0 .344.075.671.206.967-.967.508-1.755 1.339-2.196 2.406zm29.99-7.959c0 .552-.449 1-1 1h-20.414l-3.878 3.878c-.241.242-.708.045-.708-.292v-3.586h-11c-.551 0-1-.448-1-1v-17h2v10h14v-14h-10v-2h31c.551 0 1 .448 1 1z"/><path d="m25 37h2v2h-2z"/><path d="m29 37h2v2h-2z"/><path d="m33 37h2v2h-2z"/><path d="m37 37h2v2h-2z"/><path d="m41 23h18v2h-18z"/><path d="m41 27h18v2h-18z"/><path d="m41 31h18v2h-18z"/><path d="m41 35h18v2h-18z"/><path d="m42 51c-1.654 0-3 1.346-3 3s1.346 3 3 3 3-1.346 3-3-1.346-3-3-3zm0 4c-.551 0-1-.448-1-1s.449-1 1-1 1 .448 1 1-.449 1-1 1z"/><path d="m50 51c-1.654 0-3 1.346-3 3s1.346 3 3 3 3-1.346 3-3-1.346-3-3-3zm0 4c-.551 0-1-.448-1-1s.449-1 1-1 1 .448 1 1-.449 1-1 1z"/><path d="m58 51c-1.654 0-3 1.346-3 3s1.346 3 3 3 3-1.346 3-3-1.346-3-3-3zm0 4c-.551 0-1-.448-1-1s.449-1 1-1 1 .448 1 1-.449 1-1 1z"/></g></svg>