<?xml version="1.0" encoding="iso-8859-1"?>
<!-- Generator: Adobe Illustrator 18.0.0, SVG Export Plug-In . SVG Version: 6.00 Build 0)  -->
<!DOCTYPE svg PUBLIC "-//W3C//DTD SVG 1.1//EN" "http://www.w3.org/Graphics/SVG/1.1/DTD/svg11.dtd">
<svg version="1.1" id="Capa_1" xmlns="http://www.w3.org/2000/svg" xmlns:xlink="http://www.w3.org/1999/xlink" x="0px" y="0px"
	 viewBox="0 0 489.42 489.42" style="enable-background:new 0 0 489.42 489.42;" xml:space="preserve">
<g>
	<path d="M189.666,242.655c1.928,1.928,4.541,3.012,7.281,3.012c2.738,0,5.354-1.084,7.281-3.012L361.234,85.641
		c2.945-2.946,3.824-7.376,2.23-11.232c-1.595-3.847-5.339-6.356-9.512-6.356H39.939c-4.172,0-7.916,2.51-9.51,6.356
		c-1.592,3.856-0.717,8.286,2.231,11.232L189.666,242.655z"/>
	<path d="M312.547,230.515c0-46.065,36.054-83.521,81.362-86.565v-33.049c0-2.572-1.545-4.891-3.919-5.879
		c-2.39-0.987-5.114-0.438-6.946,1.378L220.383,269.079c-6.215,6.212-14.643,9.701-23.42,9.701c-8.777,0-17.205-3.489-23.42-9.701
		L10.865,106.409c-1.832-1.817-4.557-2.366-6.945-1.379C1.545,106.01,0,108.335,0,110.91v206.616
		c0,14.506,11.758,26.264,26.256,26.264h259.223v-43.622c0-18.942,11.058-35.344,27.068-43.087V230.515z"/>
	<path d="M466.064,276.804h-3.713v-46.289c0-34.564-28.104-62.675-62.659-62.675c-34.571,0-62.675,28.11-62.675,62.675v46.289
		h-3.711c-12.891,0-23.357,10.451-23.357,23.363v97.837c0,12.904,10.467,23.363,23.357,23.363h132.758
		c12.888,0,23.355-10.459,23.355-23.363v-97.837C489.42,287.255,478.952,276.804,466.064,276.804z M412.502,350.983v16.975
		c0,7.073-5.736,12.816-12.809,12.816c-7.091,0-12.841-5.743-12.841-12.816v-16.975c-5.576-4.007-9.24-10.517-9.24-17.925
		c0-12.187,9.879-22.081,22.081-22.081c12.188,0,22.065,9.895,22.065,22.081C421.758,340.466,418.093,346.976,412.502,350.983z
		 M428.178,276.804h-56.988v-46.289c0-15.717,12.795-28.494,28.503-28.494c15.692,0,28.485,12.777,28.485,28.494V276.804z"/>
</g>
<g>
</g>
<g>
</g>
<g>
</g>
<g>
</g>
<g>
</g>
<g>
</g>
<g>
</g>
<g>
</g>
<g>
</g>
<g>
</g>
<g>
</g>
<g>
</g>
<g>
</g>
<g>
</g>
<g>
</g>
</svg>
